<svg width="97" height="97" viewBox="0 0 97 97" fill="none" xmlns="http://www.w3.org/2000/svg">
<g style="mix-blend-mode:multiply">
<path d="M36.8 28.2C36.19 28.38 35.59 28.5699 35.02 28.8299C34.69 28.9799 34.39 29.1599 34.08 29.3299C33.58 29.6099 33.09 29.8999 32.63 30.2399C32.33 30.4599 32.05 30.6899 31.77 30.9399C31.35 31.3099 30.95 31.6999 30.58 32.1199C30.44 32.2799 30.26 32.3999 30.13 32.5699C30.01 32.7199 29.92 32.8899 29.81 33.0399C29.6 33.3299 29.4 33.62 29.21 33.92C29.08 34.12 28.93 34.2999 28.81 34.5099C28.67 34.7499 28.57 35.0199 28.45 35.2799C28.35 35.4899 28.24 35.7 28.15 35.92C28.1 36.05 28.03 36.1599 27.98 36.2899C27.76 36.8699 27.58 37.4699 27.44 38.0799C27.44 38.0899 27.44 38.1099 27.44 38.1199C27.43 38.1799 27.42 38.2399 27.41 38.2999C27.29 38.8599 27.2 39.4199 27.15 39.9999C27.13 40.2699 27.12 40.5399 27.11 40.8199C27.11 41.3199 27.12 41.8099 27.17 42.2899C27.2 42.5999 27.27 42.8899 27.32 43.1899C27.35 43.3799 27.37 43.5699 27.41 43.7599C27.56 44.4799 27.75 45.1799 28.01 45.8499C28.03 45.8999 28.06 45.9499 28.08 45.9999C28.13 46.1199 28.19 46.2399 28.25 46.3599C28.52 46.9699 28.83 47.5499 29.18 48.1099C29.28 48.2699 29.38 48.4299 29.48 48.5799C29.56 48.6899 29.62 48.81 29.7 48.92C30.09 49.45 30.51 49.9399 30.98 50.3999L42.03 61.4899C41.46 61.5399 40.89 61.5899 40.31 61.5899C36.76 61.5899 33.43 60.6899 30.52 59.1199C28.78 58.1699 27.19 56.9799 25.81 55.5899L41.46 71.2999C45.16 75.0099 50.28 77.2999 55.96 77.2999C56.73 77.2999 57.48 77.25 58.23 77.17C58.47 77.14 58.71 77.0899 58.95 77.0599C59.45 76.9899 59.94 76.9099 60.43 76.7999C60.71 76.7399 60.98 76.6599 61.25 76.5899C61.69 76.4699 62.12 76.3499 62.55 76.2099C62.83 76.1199 63.11 76.0099 63.38 75.9099C63.79 75.7499 64.19 75.5899 64.58 75.3999C64.85 75.2799 65.11 75.1499 65.38 75.0199C65.77 74.8199 66.15 74.5999 66.53 74.3799C66.77 74.2399 67.02 74.0999 67.25 73.9399C67.64 73.6799 68.02 73.4099 68.4 73.1299C68.6 72.9799 68.8 72.8399 68.99 72.6899C69.47 72.3099 69.92 71.8999 70.36 71.4799C70.43 71.41 70.52 71.3499 70.59 71.2699C71.1 70.7699 71.57 70.2399 72.03 69.6899C72.05 69.6599 72.08 69.6399 72.1 69.6099C72.14 69.5599 72.17 69.5 72.21 69.45C72.9 68.59 73.52 67.6799 74.07 66.7199C74.09 66.6799 74.12 66.6499 74.14 66.6099C74.14 66.5899 74.15 66.5799 74.16 66.5599C74.59 65.7799 74.96 64.9699 75.29 64.1299C75.33 64.0299 75.38 63.9499 75.42 63.8499C75.46 63.7299 75.49 63.6099 75.53 63.4899C75.77 62.8099 75.98 62.1199 76.16 61.4099C76.19 61.2999 76.23 61.1899 76.26 61.0799C76.26 61.0499 76.26 61.0099 76.28 60.9799C76.47 60.13 76.6 59.2499 76.68 58.3599C76.68 58.2799 76.71 58.1999 76.72 58.1099C76.76 57.6299 76.78 57.1499 76.78 56.6599C76.78 55.9499 76.76 55.2499 76.69 54.5699C76.69 54.5699 76.69 54.5699 76.69 54.5599C76.61 53.6999 76.46 52.8499 76.27 52.0299C76.22 51.7999 76.16 51.5699 76.1 51.3299C75.93 50.6899 75.74 50.06 75.51 49.45C75.46 49.32 75.44 49.1799 75.38 49.0499C75.36 48.9899 75.32 48.9299 75.3 48.8699C75 48.1099 74.66 47.38 74.27 46.67C74.2 46.54 74.11 46.4099 74.03 46.2799C73.7 45.6999 73.34 45.1399 72.95 44.5999C72.88 44.4999 72.83 44.3999 72.76 44.2999C72.69 44.2099 72.61 44.1299 72.54 44.0399C72 43.3299 71.43 42.6499 70.8 42.0199L55.15 26.3099C55.78 26.9399 56.35 27.6299 56.89 28.3299C57.03 28.5099 57.17 28.6899 57.3 28.8799C57.69 29.4199 58.05 29.9799 58.38 30.5599C58.46 30.6899 58.54 30.82 58.61 30.95C59 31.66 59.34 32.3899 59.64 33.1499C59.72 33.3399 59.78 33.5399 59.85 33.7299C60.07 34.3399 60.27 34.9699 60.44 35.6099C60.5 35.8399 60.56 36.0699 60.61 36.2999C60.79 37.1299 60.95 37.9699 61.03 38.8399C61.09 39.5299 61.13 40.2299 61.12 40.9399C61.12 41.4799 61.07 42.0199 61.03 42.5499L49.96 31.4399C47.59 29.0699 44.33 27.5899 40.7 27.5599C40.66 27.5599 40.62 27.5599 40.58 27.5599C39.59 27.5599 38.63 27.69 37.7 27.89C37.39 27.96 37.11 28.0699 36.81 28.1599L36.8 28.2ZM45.45 48.7499C45.69 48.4299 45.96 48.1299 46.23 47.8299C46.6 47.4099 47 47.0199 47.42 46.6599C47.7 46.4199 47.98 46.1799 48.28 45.9599C48.74 45.6199 49.23 45.3299 49.73 45.0499C50.04 44.8799 50.35 44.6899 50.67 44.5499C51.24 44.2899 51.84 44.1 52.45 43.92C52.75 43.83 53.03 43.7199 53.34 43.6499C54.27 43.4499 55.23 43.3199 56.22 43.3199C56.26 43.3199 56.3 43.3199 56.34 43.3199C57.91 43.3299 59.4 43.6599 60.79 44.1799C60.73 44.5599 60.7 44.9399 60.62 45.3099C60.59 45.4599 60.54 45.5999 60.51 45.7399C60.34 46.4499 60.13 47.1399 59.88 47.8199C59.8 48.0399 59.72 48.2499 59.64 48.4599C59.31 49.2899 58.94 50.11 58.5 50.89C58.47 50.94 58.44 50.9899 58.41 51.0399C57.86 51.9999 57.24 52.9199 56.55 53.7799C56.49 53.8499 56.44 53.9299 56.38 54.0099C55.93 54.5599 55.45 55.0899 54.94 55.5899C54.87 55.6599 54.79 55.7199 54.72 55.7899C54.28 56.2199 53.82 56.6299 53.34 57.0099C53.15 57.1599 52.95 57.2999 52.75 57.4399C52.37 57.7199 51.99 57.9999 51.6 58.2599C51.37 58.41 51.12 58.5499 50.88 58.6899C50.5 58.9099 50.12 59.1299 49.73 59.3299C49.47 59.4599 49.2 59.5899 48.94 59.7099C48.54 59.8899 48.14 60.0599 47.73 60.2199C47.46 60.3299 47.18 60.4299 46.9 60.5199C46.47 60.6599 46.04 60.7899 45.6 60.8999C45.33 60.9699 45.05 61.0499 44.78 61.1099C44.4 61.1899 44 61.2499 43.61 61.3099C43.39 60.7099 43.2 60.1099 43.06 59.4699C43.02 59.2799 43 59.0899 42.97 58.8999C42.84 58.1299 42.75 57.3399 42.77 56.5299C42.78 55.6599 42.89 54.8199 43.07 54.0099C43.08 53.9499 43.08 53.8899 43.1 53.8299C43.27 53.0699 43.52 52.3399 43.82 51.6299C43.91 51.4099 44.02 51.1999 44.12 50.9899C44.34 50.5199 44.6 50.07 44.88 49.64C45.07 49.34 45.27 49.0399 45.48 48.7599L45.45 48.7499Z" fill="#CCCCCC"/>
</g>
<g style="mix-blend-mode:multiply">
<path d="M22.31 90.0799C24.94 92.7199 28.39 94.5999 32.66 95.6999C35.87 96.5299 45.44 96.8899 55.03 96.8899C64.62 96.8899 73.76 96.5499 77.23 95.9899C78.55 95.7799 79.78 95.4699 80.97 95.0999C81.34 94.9799 81.69 94.8399 82.04 94.6999C82.84 94.4099 83.6101 94.0899 84.3401 93.7199C84.7101 93.5299 85.07 93.3299 85.43 93.1299C86.11 92.7299 86.76 92.2899 87.38 91.8199C87.68 91.5899 87.9901 91.3799 88.2701 91.1299C89.01 90.4899 89.7 89.7899 90.35 89.0399C90.44 88.9299 90.55 88.8599 90.64 88.7499C90.65 88.7299 90.66 88.7099 90.68 88.6899C91.37 87.8299 92 86.8999 92.56 85.9099C92.59 85.8599 92.6201 85.8299 92.6501 85.7799C92.8201 85.4799 92.9401 85.1399 93.0901 84.8299C93.4101 84.1799 93.7401 83.5399 94.0201 82.8299C94.0601 82.7399 94.11 82.6599 94.14 82.5599C94.46 81.7099 94.75 80.8199 95 79.8899C95.04 79.7199 95.09 79.5399 95.13 79.3399C95.19 79.0699 95.25 78.7499 95.3 78.4299C95.3 78.3699 95.32 78.3299 95.33 78.2699C95.42 77.7299 95.5 77.1199 95.57 76.4699C95.59 76.3099 95.61 76.1399 95.62 75.9699C95.69 75.3499 95.75 74.6999 95.8 73.9999C95.8 73.9199 95.81 73.8499 95.82 73.7699C95.82 73.7499 95.82 73.7299 95.82 73.6999C95.88 72.9199 95.93 72.0899 95.98 71.2299C96 70.9599 96.01 70.6799 96.0201 70.3999C96.05 69.7599 96.08 69.1099 96.11 68.4399C96.12 68.0999 96.1401 67.7499 96.1501 67.3999C96.1701 66.7499 96.1901 66.0899 96.2101 65.4199C96.2101 65.0699 96.23 64.7299 96.24 64.3799C96.26 63.5699 96.28 62.7599 96.29 61.9399C96.29 61.7299 96.29 61.5199 96.3 61.3099C96.32 60.2699 96.33 59.2199 96.33 58.1799C96.33 57.8999 96.33 57.6099 96.33 57.3299C96.33 56.5599 96.33 55.7899 96.33 55.0299C96.33 54.6699 96.33 54.3099 96.33 53.9499C96.33 53.2499 96.33 52.5499 96.32 51.8599C96.32 51.5199 96.32 51.1899 96.32 50.8599C96.32 50.0799 96.3 49.3099 96.29 48.5599C96.29 48.3499 96.29 48.1399 96.29 47.9399C96.27 46.9899 96.26 46.0699 96.24 45.1799C96.24 44.9999 96.24 44.8499 96.23 44.6699C96.21 43.9799 96.19 43.3099 96.17 42.6699C96.17 42.4199 96.1501 42.1899 96.1501 41.9399C96.1301 41.4099 96.1101 40.9099 96.0901 40.4299C96.0901 40.1999 96.07 39.9799 96.06 39.7699C96.04 39.2799 96.01 38.8399 95.99 38.4199C95.99 38.2799 95.97 38.1299 95.97 37.9999C95.94 37.5099 95.91 37.0699 95.87 36.7099C95.87 36.6799 95.87 36.6499 95.87 36.6199C95.75 35.4199 95.55 34.2599 95.2701 33.1299C95.1801 32.7699 95.05 32.4199 94.95 32.0699C94.78 31.4999 94.64 30.9099 94.43 30.3599C94.35 30.1699 94.25 29.9799 94.17 29.7899C94.04 29.4799 93.9 29.1899 93.75 28.8899C93.39 28.1499 92.99 27.4199 92.54 26.7199C92.37 26.4599 92.2201 26.1899 92.0301 25.9299C91.9401 25.7999 91.8701 25.6699 91.7801 25.5399C91.1901 24.7399 90.53 23.9799 89.8 23.2499L74.15 7.53992C74.99 8.38992 75.72 9.28991 76.38 10.2199C76.56 10.4799 76.72 10.7399 76.88 11.0099C77.33 11.7099 77.7301 12.4399 78.0901 13.1799C78.2301 13.4799 78.38 13.7799 78.51 14.0799C78.82 14.8199 79.06 15.5799 79.29 16.3499C79.39 16.7099 79.53 17.0499 79.61 17.4199C79.88 18.5499 80.09 19.7099 80.2101 20.9099C80.2501 21.2799 80.28 21.7499 80.31 22.2799C80.31 22.4299 80.3301 22.6099 80.3401 22.7699C80.3601 23.1599 80.38 23.5799 80.41 24.0399C80.41 24.0499 80.41 24.0699 80.41 24.0899L69.03 12.6699C67.01 10.6399 64.26 9.2999 60.91 8.7699C57.44 8.2399 49.09 8.00992 40.79 8.00992C32.49 8.00992 24.8 8.22989 21.29 8.60989C20.32 8.71989 19.4 8.91991 18.52 9.15991C18.24 9.23991 17.98 9.34991 17.71 9.43991C17.13 9.63991 16.56 9.84991 16.03 10.0999C15.74 10.2399 15.46 10.3999 15.19 10.5499C14.71 10.8199 14.26 11.1099 13.83 11.4299C13.58 11.6199 13.33 11.8099 13.09 12.0099C12.67 12.3699 12.28 12.7699 11.91 13.1799C11.77 13.3299 11.6 13.4499 11.47 13.6099C11.41 13.6799 11.37 13.7599 11.32 13.8399C11.09 14.1299 10.89 14.4599 10.69 14.7699C10.53 15.0199 10.34 15.2399 10.2 15.4999C10.15 15.5899 10.12 15.6899 10.07 15.7799C9.93004 16.0399 9.82004 16.3199 9.70004 16.5899C9.57004 16.8699 9.43004 17.1299 9.32004 17.4199C9.27004 17.5599 9.24002 17.7299 9.18002 17.8699C9.07002 18.1899 8.98005 18.5199 8.89005 18.8499C8.82005 19.0999 8.73004 19.3299 8.67004 19.5999C8.59004 19.9699 8.51004 20.3499 8.45004 20.7399C8.38004 21.1899 8.31003 21.7199 8.25003 22.3099C8.23003 22.5099 8.21003 22.7499 8.19003 22.9699C8.16003 23.3399 8.12003 23.6899 8.09003 24.0999C8.09003 24.1499 8.09002 24.2199 8.08002 24.2699C8.06002 24.4699 8.05004 24.6899 8.04004 24.8999C8.01004 25.3999 7.97003 25.9199 7.94003 26.4699C7.92003 26.7399 7.91002 27.0199 7.90002 27.2999C7.87002 27.8299 7.85004 28.3699 7.82004 28.9299C7.81004 29.2399 7.79003 29.5499 7.78003 29.8599C7.76003 30.4599 7.74003 31.0699 7.72003 31.6899C7.72003 31.9799 7.70003 32.2499 7.69003 32.5499C7.66003 33.4599 7.64003 34.3899 7.62003 35.3299C7.62003 35.4999 7.62003 35.6699 7.62003 35.8399C7.61003 36.6299 7.59002 37.4299 7.58002 38.2299C7.58002 38.5799 7.58004 38.9399 7.57004 39.2999C7.57004 39.9299 7.56003 40.5499 7.56003 41.1799C7.56003 41.5699 7.56003 41.9499 7.56003 42.3399C7.56003 42.9799 7.56003 43.6099 7.56003 44.2399C7.56003 44.5799 7.56003 44.9199 7.56003 45.2499C7.56003 46.0799 7.56002 46.8899 7.58002 47.6999C7.58002 47.8299 7.58002 47.9599 7.58002 48.0899C7.59002 49.0199 7.60003 49.9299 7.62003 50.8099C7.62003 51.0499 7.63005 51.2799 7.64005 51.5199C7.65005 52.1599 7.67003 52.7699 7.69003 53.3699C7.69003 53.6499 7.71003 53.9199 7.72003 54.1899C7.74003 54.7199 7.76003 55.2299 7.78003 55.7199C7.79003 55.9799 7.80003 56.2299 7.81003 56.4799C7.83003 56.9899 7.86004 57.4699 7.88004 57.9299C7.88004 58.0999 7.90003 58.2799 7.91003 58.4499C7.95003 59.0199 7.98003 59.5499 8.03003 60.0199C8.03003 60.0299 8.03003 60.0399 8.03003 60.0499C8.08003 60.5799 8.13003 61.0399 8.19003 61.3999C8.36003 62.5099 8.65003 63.5199 9.00003 64.4899C9.04003 64.6099 9.06004 64.7599 9.10004 64.8799C9.14004 64.9799 9.21003 65.0499 9.25003 65.1499C9.65003 66.1199 10.13 67.0299 10.72 67.8399C10.75 67.8799 10.76 67.9199 10.79 67.9599C11.14 68.4299 11.52 68.8699 11.93 69.2899L23.41 80.8099C20.57 80.6199 18.31 80.3699 17.05 80.0399C15.98 79.7599 14.97 79.4399 14.01 79.0699C11.12 77.9499 8.68002 76.3999 6.71002 74.4199L22.36 90.1299L22.31 90.0799ZM80.48 25.5999C80.48 25.7999 80.5 25.9799 80.5 26.1799C80.5 26.4499 80.5201 26.7099 80.5301 26.9899C80.5501 27.5799 80.57 28.1899 80.58 28.8299C80.58 29.0499 80.59 29.2699 80.6 29.4999C80.61 30.0699 80.62 30.6899 80.64 31.2899L73.54 24.1599C74.75 24.2499 75.8 24.3499 76.58 24.4699C78.01 24.6899 79.29 25.0999 80.49 25.5999H80.48ZM64.23 23.7799C64.15 23.8199 64.08 23.8999 64 23.9399C63.93 23.9699 63.85 23.9899 63.77 24.0199C63.23 24.2299 62.65 24.3699 62.03 24.3699C61.2 24.3599 60.46 24.0899 59.79 23.7199C61.31 23.7299 62.79 23.7499 64.23 23.7799ZM56.45 23.6999C57.44 23.6999 58.43 23.6999 59.42 23.7099L74.3 38.6499C75.16 39.5099 76.35 40.0499 77.68 40.0699C78.3 40.0699 78.87 39.9299 79.42 39.7199C79.5 39.6899 79.5801 39.6699 79.6501 39.6399C80.0301 39.4699 80.3901 39.2699 80.7101 39.0199C80.7101 39.1199 80.7101 39.2199 80.7101 39.3199C80.7101 40.0499 80.7101 40.7799 80.7101 41.5199C80.7101 41.8499 80.7101 42.1699 80.7101 42.4999C80.7101 43.5399 80.69 44.5699 80.68 45.5999C80.68 45.7999 80.68 45.9999 80.67 46.2099C80.66 47.0499 80.64 47.8699 80.62 48.6899C80.62 49.0299 80.6001 49.3599 80.5901 49.6899C80.5701 50.3699 80.55 51.0499 80.5201 51.7099C80.51 52.0499 80.49 52.3899 80.48 52.7299C80.45 53.4099 80.42 54.0699 80.39 54.7199C80.38 54.9899 80.36 55.2699 80.35 55.5399C80.3 56.4199 80.24 57.2799 80.18 58.0799C80.18 58.1599 80.17 58.2299 80.16 58.3099C80.1 59.0099 80.04 59.6599 79.98 60.2799C79.96 60.4499 79.94 60.6199 79.93 60.7799C79.86 61.4299 79.78 62.0399 79.69 62.5799C79.69 62.6399 79.67 62.6799 79.66 62.7299C79.57 63.2799 79.47 63.7799 79.36 64.1899C79.08 65.2199 78.74 66.1899 78.37 67.1299C78.1 67.8299 77.77 68.4699 77.45 69.1199C77.27 69.4799 77.11 69.8599 76.92 70.1999C76.35 71.1999 75.73 72.1299 75.04 72.9799C74.94 73.0999 74.82 73.2099 74.71 73.3299C74.07 74.0799 73.38 74.7799 72.63 75.4199C72.35 75.6599 72.04 75.8799 71.74 76.1099C71.12 76.5799 70.47 77.0199 69.79 77.4199C69.43 77.6299 69.07 77.8299 68.7 78.0099C67.97 78.3799 67.2 78.6999 66.4 78.9899C66.04 79.1199 65.7 79.2699 65.33 79.3899C64.15 79.7599 62.91 80.0699 61.59 80.2799C58.12 80.8399 48.75 81.1799 39.39 81.1799C34.21 81.1799 29.08 81.0699 24.91 80.8499C24.91 80.8399 24.89 80.8299 24.89 80.8099C24.8 80.5899 24.72 80.3699 24.64 80.1499C24.29 79.1799 24 78.1599 23.83 77.0499C23.77 76.6899 23.72 76.2299 23.67 75.6999C23.63 75.2299 23.59 74.6899 23.55 74.0999C23.54 73.9399 23.53 73.7499 23.52 73.5699C23.49 73.1199 23.47 72.6499 23.45 72.1499C23.44 71.8999 23.43 71.6299 23.42 71.3599C23.4 70.8799 23.38 70.3799 23.37 69.8699C23.37 69.5799 23.35 69.2999 23.34 68.9999C23.32 68.4399 23.31 67.8599 23.3 67.2599C23.3 66.9799 23.29 66.7099 23.28 66.4299C23.26 65.5699 23.25 64.6799 23.24 63.7699C23.24 63.5799 23.24 63.3799 23.24 63.1799C23.24 62.4299 23.23 61.6699 23.22 60.8999C23.22 60.5699 23.22 60.2399 23.22 59.9099C23.22 59.2599 23.22 58.5999 23.22 57.9399C23.22 57.5899 23.22 57.2399 23.22 56.8899C23.22 56.2099 23.22 55.5299 23.24 54.8599C23.24 54.5499 23.24 54.2399 23.24 53.9299C23.25 53.0999 23.26 52.2799 23.28 51.4699C23.28 51.3099 23.28 51.1499 23.28 50.9899C23.3 50.0399 23.32 49.0999 23.35 48.1799C23.35 47.9299 23.37 47.6899 23.37 47.4399C23.39 46.7699 23.41 46.1199 23.44 45.4899C23.45 45.1999 23.46 44.9099 23.48 44.6199C23.5 44.0499 23.53 43.4899 23.56 42.9499C23.57 42.6699 23.59 42.3999 23.6 42.1299C23.63 41.5699 23.67 41.0399 23.7 40.5199C23.71 40.3299 23.73 40.1299 23.74 39.9499C23.78 39.4699 23.82 39.0399 23.86 38.6099C23.88 38.3999 23.9 38.1699 23.92 37.9799C23.98 37.3899 24.05 36.8599 24.12 36.4099C24.23 35.7499 24.39 35.1399 24.56 34.5299C24.65 34.1999 24.74 33.8699 24.85 33.5499C25 33.1099 25.18 32.6799 25.37 32.2699C25.49 31.9999 25.61 31.7199 25.74 31.4599C25.93 31.0999 26.15 30.7799 26.37 30.4499C26.58 30.1299 26.77 29.8099 27 29.5199C27.18 29.2899 27.39 29.0799 27.59 28.8599C27.96 28.4499 28.34 28.0499 28.76 27.6899C29 27.4899 29.25 27.2999 29.5 27.1099C29.93 26.7899 30.39 26.4999 30.86 26.2299C31.14 26.0699 31.41 25.9199 31.7 25.7799C32.23 25.5299 32.8 25.3099 33.38 25.1199C33.65 25.0299 33.91 24.9199 34.19 24.8399C35.07 24.5999 35.98 24.3999 36.95 24.2899C40.46 23.9099 48.44 23.6899 56.45 23.6899V23.6999Z" fill="#CCCCCC"/>
</g>
<path d="M62.08 14.7C62.08 14.7 62.12 14.7 62.14 14.7C64.79 14.7 66.94 16.8699 66.92 19.5499C66.9 22.1999 64.72 24.3699 62.04 24.3699C59.36 24.3399 57.24 22.1699 57.26 19.5199C57.28 16.8599 59.43 14.7 62.09 14.7H62.08Z" fill="white"/>
<path d="M80.23 20.91C80.83 27.25 81.21 57.17 79.35 64.19C76.86 73.37 70.87 78.8 61.58 80.29C58.11 80.85 48.74 81.19 39.38 81.19C30.02 81.19 20.23 80.84 17.01 80C7.88001 77.64 2.43001 71.69 0.980015 62.45C-0.0999855 55.66 -0.210006 24.12 1.73999 17.27C4.29999 8.34996 10.25 3.10997 19.28 1.62997C23.37 0.959974 31.37 0.719971 39.45 0.719971C46.96 0.719971 54.54 0.919983 59.1 1.16998C64.62 1.45998 69.69 3.23996 73.79 7.17996C77.7 10.93 79.71 15.62 80.21 20.92L80.23 20.91ZM72.49 61.12C73.64 54.04 73.65 28.22 72.99 21.59C72.27 14.51 67.94 9.85998 60.94 8.75998C57.47 8.22998 49.12 7.99997 40.82 7.99997C32.52 7.99997 24.83 8.21998 21.32 8.59998C14.3 9.40998 9.58 13.74 8.46 20.72C7.3 28.12 7.32 55.79 8.18 61.35C9.07 67.14 12.34 71.11 18.11 72.73C21.23 73.6 30.59 73.92 39.76 73.92C48.2 73.92 56.49 73.65 59.61 73.31C66.69 72.53 71.38 68.17 72.5 61.12" fill="white"/>
<path d="M40.64 20.3199C52.02 20.3199 61.19 29.5599 61.1 40.9699C61.01 52.3499 51.7 61.5899 40.29 61.5899C28.88 61.5899 19.74 52.3499 19.83 40.9399C19.92 29.5299 29.23 20.2899 40.64 20.3199ZM40.34 54.2899C47.65 54.2899 53.68 48.3999 53.8 41.0699C53.92 33.6699 48.05 27.6599 40.68 27.5899C40.64 27.5899 40.6 27.5899 40.56 27.5899C33.24 27.5899 27.22 33.4799 27.1 40.8099C26.98 48.1799 32.85 54.2199 40.22 54.2899C40.26 54.2899 40.3 54.2899 40.34 54.2899Z" fill="white"/>
</svg>
