<svg width="81" height="82" viewBox="0 0 81 82" fill="none" xmlns="http://www.w3.org/2000/svg">
<path d="M62.08 14.7C62.08 14.7 62.12 14.7 62.14 14.7C64.79 14.7 66.94 16.8699 66.92 19.5499C66.9 22.1999 64.72 24.3699 62.04 24.3699C59.36 24.3399 57.24 22.1699 57.26 19.5199C57.28 16.8599 59.43 14.7 62.09 14.7H62.08Z" fill="white"/>
<path d="M80.23 20.91C80.83 27.25 81.21 57.17 79.35 64.19C76.86 73.37 70.87 78.8 61.58 80.29C58.11 80.85 48.74 81.19 39.38 81.19C30.02 81.19 20.23 80.84 17.01 80C7.88001 77.64 2.43001 71.69 0.980015 62.45C-0.0999855 55.66 -0.210006 24.12 1.73999 17.27C4.29999 8.34996 10.25 3.10997 19.28 1.62997C23.37 0.959974 31.37 0.719971 39.45 0.719971C46.96 0.719971 54.54 0.919983 59.1 1.16998C64.62 1.45998 69.69 3.23996 73.79 7.17996C77.7 10.93 79.71 15.62 80.21 20.92L80.23 20.91ZM72.49 61.12C73.64 54.04 73.65 28.22 72.99 21.59C72.27 14.51 67.94 9.85998 60.94 8.75998C57.47 8.22998 49.12 7.99997 40.82 7.99997C32.52 7.99997 24.83 8.21998 21.32 8.59998C14.3 9.40998 9.58 13.74 8.46 20.72C7.3 28.12 7.32 55.79 8.18 61.35C9.07 67.14 12.34 71.11 18.11 72.73C21.23 73.6 30.59 73.92 39.76 73.92C48.2 73.92 56.49 73.65 59.61 73.31C66.69 72.53 71.38 68.17 72.5 61.12" fill="white"/>
<path d="M40.64 20.3199C52.02 20.3199 61.19 29.5599 61.1 40.9699C61.01 52.3499 51.7 61.5899 40.29 61.5899C28.88 61.5899 19.74 52.3499 19.83 40.9399C19.92 29.5299 29.23 20.2899 40.64 20.3199ZM40.34 54.2899C47.65 54.2899 53.68 48.3999 53.8 41.0699C53.92 33.6699 48.05 27.6599 40.68 27.5899C40.64 27.5899 40.6 27.5899 40.56 27.5899C33.24 27.5899 27.22 33.4799 27.1 40.8099C26.98 48.1799 32.85 54.2199 40.22 54.2899C40.26 54.2899 40.3 54.2899 40.34 54.2899Z" fill="white"/>
</svg>
