<svg width="102" height="103" viewBox="0 0 102 103" fill="none" xmlns="http://www.w3.org/2000/svg">
<g style="mix-blend-mode:multiply">
<path d="M101.85 56.3399C101.83 55.8699 101.82 55.3999 101.78 54.9299C101.77 54.7699 101.78 54.6099 101.76 54.4499C101.65 53.2799 101.5 52.0999 101.29 50.9199C101.08 49.6899 100.79 48.4799 100.47 47.2899C100.37 46.9199 100.25 46.5499 100.14 46.1799C99.89 45.3499 99.6199 44.5299 99.3199 43.7199C99.2499 43.5199 99.19 43.3099 99.12 43.1099C99.06 42.9699 98.9801 42.8399 98.9301 42.6999C98.3201 41.1899 97.64 39.7099 96.87 38.2899C96.75 38.0699 96.62 37.8499 96.49 37.6299C95.66 36.1599 94.76 34.7299 93.76 33.3699C93.76 33.3699 93.76 33.3599 93.75 33.3499C93.74 33.3299 93.72 33.3199 93.71 33.3099C92.47 31.6399 91.12 30.0599 89.66 28.5899L74.01 12.8799C75.48 14.3499 76.8299 15.9299 78.0699 17.5999C78.0799 17.6199 78.1 17.6399 78.12 17.6599C79.12 19.0199 80.02 20.4499 80.85 21.9299C80.97 22.1499 81.11 22.3599 81.23 22.5899C82 24.0099 82.68 25.4899 83.29 26.9999C83.43 27.3399 83.5599 27.6799 83.6899 28.0199C83.9899 28.8299 84.26 29.6499 84.51 30.4799C84.62 30.8499 84.74 31.2099 84.84 31.5899C85.16 32.7799 85.45 33.9899 85.66 35.2199C85.89 36.5599 86.04 37.8999 86.15 39.2299C86.19 39.6999 86.2 40.1699 86.22 40.6399C86.26 41.5299 86.29 42.4199 86.28 43.2999C86.28 43.8099 86.25 44.3199 86.23 44.8299C86.19 45.7299 86.12 46.6299 86.02 47.5199C85.98 47.8799 85.94 48.2499 85.9 48.6099C85.73 49.8699 85.52 51.1099 85.24 52.3399C85.22 52.4099 85.1999 52.4699 85.1899 52.5399C84.9199 53.6999 84.59 54.8299 84.23 55.9499C84.12 56.2899 84 56.6299 83.88 56.9699C83.57 57.8499 83.23 58.7199 82.87 59.5799C82.73 59.9099 82.6 60.2499 82.45 60.5799C81.93 61.7099 81.38 62.8299 80.77 63.9099C80.64 64.1399 80.49 64.3499 80.36 64.5799C79.84 65.4699 79.3 66.3499 78.72 67.1999L64.85 53.2799C64.96 53.3899 65.0299 53.4999 65.0699 53.6099C65.0699 53.6299 65.07 53.6399 65.08 53.6599C65.11 53.7599 65.13 53.8599 65.13 53.9699C65.16 54.7699 65.0799 55.4999 64.95 56.1899C64.9399 56.2699 64.93 56.3499 64.92 56.4199C64.78 57.0599 64.5699 57.6399 64.3199 58.1899C64.2699 58.2999 64.23 58.3999 64.17 58.4999C63.89 59.0399 63.57 59.5499 63.2 59.9899C62.7299 60.5599 62.18 61.0499 61.6 61.4699C61.42 61.5999 61.23 61.6999 61.05 61.8199C60.62 62.0899 60.19 62.3399 59.74 62.5399C59.52 62.6399 59.3 62.7299 59.08 62.8099C58.63 62.9799 58.17 63.1099 57.72 63.2199C57.52 63.2699 57.33 63.3199 57.14 63.3599C56.5 63.4699 55.8801 63.5499 55.3 63.5499C55.09 63.5499 54.8799 63.5499 54.6899 63.5299C48.7899 63.3199 40.41 59.9499 32.84 52.3499L48.49 68.0599C54.69 74.2799 61.4 77.6299 66.88 78.7699C66.61 78.9499 66.3499 79.1299 66.0699 79.2999C65.4099 79.7099 64.73 80.0999 64.04 80.4799C63.55 80.7499 63.0601 81.0199 62.5601 81.2799C61.8301 81.6399 61.08 81.9699 60.33 82.2999C59.84 82.5099 59.35 82.7399 58.85 82.9299C58 83.2599 57.13 83.5299 56.25 83.8099C55.81 83.9499 55.3799 84.1099 54.9399 84.2299C53.5999 84.5999 52.24 84.9199 50.85 85.1599C48.34 85.5899 45.85 85.7999 43.39 85.7999C38.4 85.7999 33.53 84.9099 28.8 83.1799C28.84 83.0499 28.87 82.9199 28.92 82.7899C29.07 82.3999 29.18 82.0099 29.27 81.6399C29.31 81.4799 29.32 81.3299 29.34 81.1799C29.36 81.0799 29.37 80.9799 29.39 80.8799C29.4 80.7899 29.4201 80.6999 29.4301 80.6099C29.4601 80.2399 29.4601 79.8899 29.4301 79.5299C29.4301 79.4999 29.41 79.4699 29.41 79.4399C29.35 78.8399 29.2 78.2399 28.97 77.6299C28.97 77.6099 28.97 77.5899 28.96 77.5799C28.77 77.0699 28.52 76.5599 28.22 76.0299C27.47 74.6699 26.82 73.2899 26.27 71.8899C26.14 71.5599 26.06 71.2299 25.95 70.9099C25.54 69.7699 25.16 68.6199 24.87 67.4599C24.74 66.9199 24.66 66.3799 24.55 65.8399C24.36 64.8899 24.19 63.9299 24.08 62.9699C23.97 61.9399 23.88 60.8999 23.86 59.8699C23.86 59.7499 23.84 59.6199 23.84 59.4999C23.83 58.3399 23.9 57.1799 24 56.0299C24.14 54.4599 24.36 52.8999 24.7 51.3699C24.7 51.3499 24.71 51.3299 24.72 51.3099C25.06 49.8199 25.52 48.3599 26.04 46.9199C26.2 46.4899 26.3901 46.0799 26.5601 45.6599C27.0101 44.5499 27.52 43.4699 28.08 42.4099C28.39 41.8199 28.71 41.2299 29.05 40.6499C29.26 40.3099 29.4701 39.9599 29.6801 39.6199C30.2201 38.7899 30.8 37.9799 31.41 37.1899C31.57 36.9899 31.71 36.7699 31.87 36.5699C32.64 35.6199 33.47 34.6999 34.33 33.8299C34.55 33.5999 34.79 33.3899 35.03 33.1699C35.33 32.8799 35.66 32.6099 35.98 32.3299C36.1 32.6599 36.24 32.9799 36.36 33.3099C36.5 33.6699 36.54 34.0299 36.49 34.4099C36.49 34.4299 36.49 34.4499 36.49 34.4599C36.44 34.8199 36.3 35.1899 36.09 35.5899C36.08 35.6099 36.0701 35.6299 36.0601 35.6499C36.0001 35.7599 35.8901 35.8899 35.8101 36.0099C35.5801 36.3799 35.33 36.7499 34.99 37.1699C34.62 37.6299 34.2 38.1199 33.71 38.6699C33.68 38.7099 33.64 38.7499 33.61 38.7899C33.5 38.9299 33.41 39.0599 33.33 39.1899C33.33 39.1999 33.3201 39.2199 33.3101 39.2299C33.3101 39.2499 33.3 39.2599 33.29 39.2799C33.26 39.3399 33.2299 39.4099 33.2 39.4699C33.17 39.5499 33.15 39.6299 33.13 39.6999C33.13 39.7399 33.12 39.7699 33.11 39.8099C33.11 39.8299 33.11 39.8399 33.11 39.8599C33.11 39.8899 33.11 39.9099 33.1 39.9399C33.1 40.0299 33.1 40.1199 33.1 40.2099C33.1 40.2499 33.13 40.2999 33.13 40.3499C33.14 40.4199 33.1601 40.4999 33.1801 40.5699C33.2001 40.6299 33.2 40.6799 33.22 40.7399C33.27 40.8599 33.32 40.9799 33.39 41.1099C34 42.1599 34.66 43.1699 35.37 44.1199C35.41 44.1699 35.45 44.2099 35.49 44.2599C36.32 45.3599 37.2 46.3999 38.15 47.3499L53.8 63.0599C52.85 62.0999 51.97 61.0699 51.14 59.9699C50.39 58.9799 49.69 57.9399 49.05 56.8299C48.9501 56.6499 48.89 56.4699 48.83 56.2999C48.81 56.2299 48.79 56.1499 48.78 56.0799C48.75 55.9099 48.74 55.7499 48.76 55.5899C48.76 55.5799 48.76 55.5599 48.76 55.5499C48.79 55.3699 48.8499 55.1899 48.9399 55.0199C48.9399 55.0099 48.95 54.9899 48.96 54.9799C49.06 54.7899 49.19 54.6099 49.36 54.4199C49.82 53.9099 50.22 53.4399 50.58 52.9999C50.61 52.9699 50.62 52.9499 50.64 52.9199C50.98 52.4999 51.23 52.1199 51.46 51.7599C51.52 51.6599 51.6399 51.5299 51.6899 51.4299C51.6899 51.4199 51.7 51.4099 51.71 51.3899C51.72 51.3699 51.73 51.3499 51.74 51.3299C51.83 51.1499 51.92 50.9799 51.99 50.8099C52.04 50.6699 52.09 50.5299 52.12 50.3899C52.13 50.3299 52.14 50.2599 52.15 50.1999C52.15 50.1799 52.15 50.1599 52.15 50.1499C52.15 50.1099 52.16 50.0699 52.17 50.0399C52.17 49.9099 52.17 49.7899 52.17 49.6599C52.15 49.4599 52.1 49.2599 52.03 49.0499C51.83 48.4999 51.63 47.9499 51.42 47.4099C51.29 47.0599 51.13 46.7299 51 46.3799C50.25 44.4899 49.47 42.6099 48.67 40.7399C48.56 40.5199 48.41 40.2599 48.25 40.0299C48.18 39.9299 48.1 39.8399 48.02 39.7599L38.5601 30.2699C39.3001 29.7199 40.05 29.1899 40.83 28.6999C40.96 28.6199 41.08 28.5299 41.21 28.4499C42.29 27.7899 43.42 27.2099 44.59 26.6599C44.91 26.5099 45.2499 26.3799 45.5699 26.2299C46.4699 25.8399 47.39 25.4899 48.34 25.1699C48.7 25.0499 49.0699 24.9199 49.4399 24.8099C50.7099 24.4299 52.01 24.0899 53.36 23.8399C55.54 23.4399 57.71 23.2499 59.84 23.2499C69.41 23.2499 78.29 27.1199 84.75 33.5999L69.1 17.8899C62.64 11.4099 53.7599 7.53992 44.1899 7.53992C42.0599 7.53992 39.89 7.72991 37.71 8.12991C36.36 8.37991 35.06 8.71991 33.79 9.09991C33.42 9.20991 33.0599 9.3399 32.6899 9.4599C31.7399 9.7799 30.82 10.1299 29.92 10.5199C29.59 10.6599 29.2601 10.7999 28.9301 10.9499C27.7701 11.4899 26.63 12.0799 25.55 12.7399C25.42 12.8199 25.3 12.9099 25.17 12.9899C24.22 13.5799 23.3 14.2199 22.42 14.8999C22.12 15.1299 21.83 15.3699 21.54 15.5999C20.8 16.1999 20.09 16.8299 19.4 17.4899C19.17 17.7099 18.93 17.9299 18.7 18.1499C17.88 18.9799 17.09 19.8299 16.36 20.7299C16.32 20.7799 16.28 20.8399 16.24 20.8999C16.08 21.0999 15.94 21.3199 15.78 21.5199C15.17 22.3099 14.59 23.1099 14.05 23.9499C13.83 24.2899 13.62 24.6299 13.42 24.9799C13.22 25.3199 12.99 25.6399 12.8 25.9799C12.66 26.2199 12.58 26.4899 12.45 26.7399C11.89 27.7999 11.3801 28.8799 10.9301 29.9899C10.8101 30.2799 10.64 30.5499 10.53 30.8499C10.48 30.9799 10.46 31.1199 10.41 31.2499C9.88003 32.6899 9.42997 34.1499 9.08997 35.6399C9.08997 35.6599 9.07995 35.6699 9.06995 35.6899C8.71995 37.2199 8.50999 38.7799 8.37 40.3499C8.35999 40.4999 8.31005 40.6399 8.30005 40.7899C8.22005 41.7999 8.18995 42.8099 8.19995 43.8199C8.19995 43.9499 8.21997 44.0699 8.21997 44.1999C8.23997 45.0299 8.26997 45.8499 8.33997 46.6799C8.35997 46.8899 8.41994 47.0899 8.43994 47.2899C8.54994 48.2499 8.72003 49.1999 8.91003 50.1599C9.02003 50.6999 9.09998 51.2399 9.22998 51.7799C9.51998 52.9299 9.89006 54.0799 10.3101 55.2199C10.4201 55.5099 10.47 55.8199 10.59 56.1099C10.6 56.1499 10.63 56.1799 10.64 56.2199C11.19 57.6199 11.84 58.9999 12.59 60.3599C12.9 60.9099 13.15 61.4499 13.35 61.9699C13.58 62.5799 13.73 63.1799 13.79 63.7799C13.84 64.2499 13.83 64.7299 13.78 65.2099C13.77 65.3099 13.75 65.4099 13.73 65.5099C13.65 66.0299 13.5201 66.5499 13.3101 67.1199C12.7801 68.6199 12.3501 70.1499 11.9301 71.7299C11.5101 73.3099 11.1 74.9299 10.62 76.6299L16.36 82.3899C8.07999 84.5199 2.53 86.0399 0.619995 86.4199L16.27 102.13C18.57 101.68 26.08 99.5799 37.38 96.7299C37.64 96.6699 37.93 96.6299 38.23 96.6299C38.83 96.6299 39.48 96.7599 39.99 97.0199C46.11 100.01 52.4799 101.54 59.0699 101.54C61.5299 101.54 64.01 101.33 66.53 100.9C67.92 100.66 69.29 100.34 70.62 99.9699C71.06 99.8499 71.49 99.6899 71.92 99.5499C72.8 99.2699 73.68 98.9999 74.53 98.6699C75.03 98.4799 75.51 98.2499 76 98.0399C76.76 97.7099 77.52 97.3799 78.25 97.0199C78.75 96.7699 79.24 96.4999 79.72 96.2299C80.41 95.8499 81.09 95.4599 81.76 95.0499C82.24 94.7499 82.7101 94.4399 83.1801 94.1199C83.8201 93.6899 84.44 93.2399 85.05 92.7699C85.5 92.4299 85.94 92.0799 86.38 91.7199C86.97 91.2299 87.55 90.7199 88.11 90.1999C88.52 89.8199 88.9299 89.4499 89.3199 89.0599C89.8799 88.4999 90.4099 87.9199 90.9399 87.3299C91.2899 86.9399 91.65 86.5499 91.99 86.1499C92.1 86.0199 92.2199 85.9099 92.3199 85.7799C92.7499 85.2499 93.13 84.6999 93.53 84.1499C93.81 83.7699 94.11 83.3999 94.38 83.0099C94.98 82.1499 95.5201 81.2499 96.0601 80.3399C96.1901 80.1099 96.35 79.8999 96.48 79.6699C96.49 79.6499 96.51 79.6299 96.52 79.6099C97.12 78.5499 97.65 77.4499 98.16 76.3399C98.31 76.0099 98.44 75.6699 98.58 75.3399C98.79 74.8399 99.02 74.3499 99.21 73.8499C99.35 73.4799 99.46 73.0999 99.59 72.7299C99.71 72.3899 99.8299 72.0499 99.9399 71.7099C100.3 70.5899 100.63 69.4499 100.9 68.2999C100.92 68.2299 100.94 68.1699 100.95 68.0999C100.95 68.0899 100.95 68.0699 100.96 68.0599C101.23 66.8499 101.44 65.6199 101.61 64.3799C101.66 64.0199 101.69 63.6499 101.73 63.2899C101.78 62.8099 101.86 62.3299 101.89 61.8499C101.92 61.4399 101.91 61.0099 101.93 60.5999C101.95 60.0899 101.98 59.5899 101.98 59.0799C101.99 58.1999 101.96 57.3099 101.92 56.4199L101.85 56.3399Z" fill="#CCCCCC"/>
</g>
<path d="M29.29 23.45C30.11 23.45 30.9399 23.5999 31.75 23.7399C32.2299 23.7999 32.6799 24.5199 32.9399 25.0299C34.1099 27.7799 35.29 30.5199 36.3 33.3399C36.87 34.8299 35.83 36.2499 33.64 38.7099C32.96 39.4899 32.8199 40.2299 33.3299 41.1299C36.7799 47.0399 41.62 51.3099 48.04 53.8299C48.33 53.9399 48.5999 53.9899 48.8399 53.9899C49.3899 53.9899 49.84 53.7199 50.27 53.2099C53.01 49.8999 53.79 48.45 54.9 48.45C55.18 48.45 55.4799 48.5399 55.8299 48.7099C64.3999 52.8099 65.0699 52.98 65.0999 53.95C65.3199 60.83 59.33 63.5399 55.27 63.5399C55.06 63.5399 54.85 63.5399 54.66 63.5199C46.36 63.2299 33.1499 56.6699 24.1899 40.8999C21.0299 35.3099 21.53 28.9399 26.29 24.5499C27.19 23.7099 28.23 23.4599 29.3 23.4599L29.29 23.45Z" fill="white"/>
<path d="M85.64 35.2099C89.73 58.7399 74.1701 81.0399 50.8 85.1499C48.2901 85.5799 45.8 85.7899 43.34 85.7899C36.75 85.7899 30.38 84.2599 24.26 81.2699C23.74 81.0099 23.1 80.8799 22.5 80.8799C22.2 80.8799 21.91 80.9099 21.65 80.9799C10.35 83.8199 2.83004 85.9299 0.540039 86.3799C1.04004 84.5399 1.47002 82.9199 1.90002 81.3099C3.36002 76.1399 4.85997 70.9999 6.21997 65.8299C6.41997 65.0499 6.36001 64.0499 6.01001 63.3399C-6.91999 38.3899 6.84999 8.16992 34.37 1.69992C37.77 0.909921 41.12 0.529907 44.38 0.529907C65.12 0.529907 82.24 15.7499 85.64 35.2199V35.2099ZM49.05 78.2899C68.4 75.1899 81.76 57.1199 78.96 37.8599C76.36 20.0899 61.34 7.52991 44.11 7.52991C41.98 7.52991 39.81 7.7199 37.63 8.1199C13.68 12.5199 0.77001 39.1799 12.51 60.3199C13.82 62.6499 14.16 64.5899 13.23 67.0799C12.17 70.0899 11.5 73.1899 10.54 76.5799C14.78 75.4799 18.7 74.5099 22.59 73.4099C22.95 73.3099 23.29 73.2699 23.61 73.2699C24.26 73.2699 24.85 73.4599 25.5 73.8299C31.1 77.0799 37.01 78.7599 43.26 78.7599C45.16 78.7599 47.1001 78.5999 49.0601 78.2899" fill="white"/>
</svg>
