<svg width="87" height="87" viewBox="0 0 87 87" fill="none" xmlns="http://www.w3.org/2000/svg">
<path d="M29.29 23.45C30.11 23.45 30.9399 23.5999 31.75 23.7399C32.2299 23.7999 32.6799 24.5199 32.9399 25.0299C34.1099 27.7799 35.29 30.5199 36.3 33.3399C36.87 34.8299 35.83 36.2499 33.64 38.7099C32.96 39.4899 32.8199 40.2299 33.3299 41.1299C36.7799 47.0399 41.62 51.3099 48.04 53.8299C48.33 53.9399 48.5999 53.9899 48.8399 53.9899C49.3899 53.9899 49.84 53.7199 50.27 53.2099C53.01 49.8999 53.79 48.45 54.9 48.45C55.18 48.45 55.4799 48.5399 55.8299 48.7099C64.3999 52.8099 65.0699 52.98 65.0999 53.95C65.3199 60.83 59.33 63.5399 55.27 63.5399C55.06 63.5399 54.85 63.5399 54.66 63.5199C46.36 63.2299 33.1499 56.6699 24.1899 40.8999C21.0299 35.3099 21.53 28.9399 26.29 24.5499C27.19 23.7099 28.23 23.4599 29.3 23.4599L29.29 23.45Z" fill="white"/>
<path d="M85.64 35.2099C89.73 58.7399 74.1701 81.0399 50.8 85.1499C48.2901 85.5799 45.8 85.7899 43.34 85.7899C36.75 85.7899 30.38 84.2599 24.26 81.2699C23.74 81.0099 23.1 80.8799 22.5 80.8799C22.2 80.8799 21.91 80.9099 21.65 80.9799C10.35 83.8199 2.83004 85.9299 0.540039 86.3799C1.04004 84.5399 1.47002 82.9199 1.90002 81.3099C3.36002 76.1399 4.85997 70.9999 6.21997 65.8299C6.41997 65.0499 6.36001 64.0499 6.01001 63.3399C-6.91999 38.3899 6.84999 8.16992 34.37 1.69992C37.77 0.909921 41.12 0.529907 44.38 0.529907C65.12 0.529907 82.24 15.7499 85.64 35.2199V35.2099ZM49.05 78.2899C68.4 75.1899 81.76 57.1199 78.96 37.8599C76.36 20.0899 61.34 7.52991 44.11 7.52991C41.98 7.52991 39.81 7.7199 37.63 8.1199C13.68 12.5199 0.77001 39.1799 12.51 60.3199C13.82 62.6499 14.16 64.5899 13.23 67.0799C12.17 70.0899 11.5 73.1899 10.54 76.5799C14.78 75.4799 18.7 74.5099 22.59 73.4099C22.95 73.3099 23.29 73.2699 23.61 73.2699C24.26 73.2699 24.85 73.4599 25.5 73.8299C31.1 77.0799 37.01 78.7599 43.26 78.7599C45.16 78.7599 47.1001 78.5999 49.0601 78.2899" fill="white"/>
</svg>
